# xmcd CD database file
#
# Track frame offsets:
#	150
#	26704
#	48411
#	73761
#	101894
#	121881
#	140961
#	177886
#	194954
#	211906
#
# Disc length: 3016 seconds
#
# Revision: 0
# Processed by: cddbd v1.5.2PL0 Copyright (c) Steve Scherf et al.
# Submitted via: CDex 1.51
#
DISCID=a20bc60a
DTITLE=Sadao Watanabe - Basie's At Night [CD2]
DYEAR=2007
DGENRE=Jazz
TTITLE0=Bye Bye Babe
TTITLE1=Basie's At Night
TTITLE2=Life Is All Like That (For Snoopy and His Friends)
TTITLE3=See What Happens
TTITLE4=Call Me
TTITLE5=Manha De Carnaval
TTITLE6=Episode
TTITLE7=Karibu/Orange Express
TTITLE8=Harambee
TTITLE9=Carinhoso
EXTD=YEAR: 2007
EXTT0=
EXTT1=
EXTT2=
EXTT3=
EXTT4=
EXTT5=
EXTT6=
EXTT7=
EXTT8=
EXTT9=
PLAYORDER=
